<?xml version="1.0" encoding="UTF-8"?>
<svg id="Layer_1" data-name="Layer 1" xmlns="http://www.w3.org/2000/svg" viewBox="0 0 584.65 306.13">
  <defs>
    <style>
      .cls-1 {
        fill: #ed1c24;
      }
    </style>
  </defs>
  <polygon class="cls-1" points="398.06 252.9 378.49 259.05 381.67 280.66 375.33 259.75 355 262.53 374.58 256.39 371.39 234.77 377.73 255.68 398.06 252.9"/>
  <polygon class="cls-1" points="484.47 147.84 464.9 153.98 468.09 175.6 461.74 154.69 441.41 157.47 460.99 151.32 457.8 129.7 464.15 150.62 484.47 147.84"/>
  <polygon class="cls-1" points="200.26 216.57 180.45 221.91 182.75 243.64 177.27 222.48 156.84 224.43 176.65 219.09 174.35 197.36 179.83 218.51 200.26 216.57"/>
  <polygon class="cls-1" points="146.61 274.12 131.67 260.07 114.36 273.42 129.51 257.67 117.13 241.31 132.07 255.36 149.39 242.01 134.24 257.77 146.61 274.12"/>
  <polygon class="cls-1" points="93.89 189.3 75.23 197.82 81.07 218.87 72.18 198.91 52.35 204.18 71.02 195.66 65.18 174.6 74.06 194.57 93.89 189.3"/>
  <polygon class="cls-1" points="158.41 26.56 137.94 25.2 133.07 46.5 134.74 24.71 114.79 19.94 135.26 21.3 140.14 0 138.46 21.79 158.41 26.56"/>
  <polygon class="cls-1" points="500.54 243.29 492.28 262.05 510.66 273.89 490.73 264.89 479.43 282 487.7 263.24 469.31 251.4 489.24 260.4 500.54 243.29"/>
  <polygon class="cls-1" points="334.43 269.5 324.26 268.16 321.14 278.63 322.68 267.81 312.88 264.78 323.05 266.12 326.17 255.65 324.63 266.47 334.43 269.5"/>
  <polygon class="cls-1" points="511.52 202.21 501.73 205.28 503.32 216.09 500.15 205.63 489.99 207.02 499.77 203.95 498.18 193.14 501.35 203.6 511.52 202.21"/>
  <polygon class="cls-1" points="499.05 77.65 491.43 70.79 482.92 77.65 490.32 69.61 483.96 61.57 491.58 68.43 500.09 61.57 492.69 69.61 499.05 77.65"/>
  <polygon class="cls-1" points="87.18 46.36 79.93 53.62 86.35 62.46 78.69 54.66 70.33 60.6 77.58 53.34 71.15 44.5 78.81 52.3 87.18 46.36"/>
  <polygon class="cls-1" points="133.08 201.27 124.62 207.06 129.3 216.94 123.21 207.86 113.89 212.15 122.36 206.36 117.68 196.48 123.77 205.56 133.08 201.27"/>
  <polygon class="cls-1" points="89.52 267.12 79.73 270.19 81.32 281 78.15 270.55 67.99 271.94 77.77 268.86 76.18 258.05 79.35 268.51 89.52 267.12"/>
  <circle class="cls-1" cx="181.87" cy="24.8" r="3.02"/>
  <circle class="cls-1" cx="280.3" cy="261.07" r="3.02"/>
  <circle class="cls-1" cx="453.39" cy="281.75" r="3.02"/>
  <circle class="cls-1" cx="65.62" cy="108.07" r="3.02"/>
  <circle class="cls-1" cx="178.55" cy="274.12" r="3.02"/>
  <circle class="cls-1" cx="511.52" cy="176.93" r="3.02"/>
  <circle class="cls-1" cx="373.52" cy="22.54" r="3.02"/>
  <circle class="cls-1" cx="455.71" cy="70.1" r="3.02"/>
  <circle class="cls-1" cx="498.23" cy="27.81" r="3.02"/>
  <circle class="cls-1" cx="507.05" cy="135.84" r="3.02"/>
  <circle class="cls-1" cx="347.9" cy="210.87" r="3.02"/>
  <circle class="cls-1" cx="453.39" cy="209.49" r="3.02"/>
  <circle class="cls-1" cx="94.65" cy="27.78" r="3.02"/>
  <circle class="cls-1" cx="73.12" cy="234.77" r="3.02"/>
  <circle class="cls-1" cx="109.71" cy="284.76" r="3.02"/>
  <polygon class="cls-1" points="420.81 292.25 411.02 295.32 412.61 306.13 409.44 295.67 399.28 297.06 409.06 293.99 407.47 283.18 410.64 293.64 420.81 292.25"/>
  <circle class="cls-1" cx="419.89" cy="253.29" r="3.02"/>
  <circle class="cls-1" cx="123.49" cy="69.61" r="3.02"/>
  <polygon class="cls-1" points="340.95 56.52 346.29 76.33 368.02 74.03 346.87 79.51 348.81 99.94 343.47 80.13 321.74 82.42 342.9 76.94 340.95 56.52"/>
  <polygon class="cls-1" points="426.1 114.71 412.06 129.65 425.41 146.96 409.65 131.81 393.3 144.18 407.35 129.24 393.99 111.93 409.75 127.08 426.1 114.71"/>
  <polygon class="cls-1" points="341.28 167.43 349.8 186.09 370.86 180.25 350.89 189.14 356.16 208.96 347.65 190.3 326.59 196.14 346.56 187.25 341.28 167.43"/>
  <polygon class="cls-1" points="178.54 102.9 177.18 123.38 198.48 128.25 176.7 126.58 171.92 146.53 173.29 126.06 151.99 121.18 173.77 122.86 178.54 102.9"/>
  <polygon class="cls-1" points="198.35 174.14 205.6 181.39 214.44 174.97 206.65 182.63 212.58 190.99 205.33 183.74 196.49 190.17 204.28 182.51 198.35 174.14"/>
  <polygon class="cls-1" points="353.26 128.23 359.05 136.7 368.92 132.02 359.84 138.11 364.13 147.42 358.34 138.96 348.47 143.64 357.55 137.55 353.26 128.23"/>
  <polygon class="cls-1" points="419.11 171.8 422.18 181.59 432.99 179.99 422.53 183.17 423.92 193.33 420.85 183.54 410.04 185.14 420.5 181.96 419.11 171.8"/>
  <circle class="cls-1" cx="176.78" cy="79.45" r="3.01"/>
  <circle class="cls-1" cx="332.61" cy="148.59" r="3.01"/>
  <circle class="cls-1" cx="179.76" cy="166.66" r="3.01"/>
  <circle class="cls-1" cx="221.6" cy="137.83" r="3.01"/>
  <polygon class="cls-1" points="284.2 107.72 265.09 115.17 269.73 136.53 261.98 116.09 241.89 120.25 261 112.79 256.36 91.44 264.11 111.87 284.2 107.72"/>
  <polygon class="cls-1" points="434.5 78.2 418.12 65.86 402.36 81.01 415.71 63.7 401.64 48.79 418.01 61.13 433.77 45.98 420.42 63.29 434.5 78.2"/>
  <polygon class="cls-1" points="255.55 196.87 237.92 207.36 246.01 227.66 235.01 208.78 215.88 216.17 233.5 205.68 225.41 185.38 236.41 204.26 255.55 196.87"/>
  <polygon class="cls-1" points="302.02 28.08 281.52 28.95 278.99 50.66 278.29 28.82 257.93 26.24 278.43 25.37 280.97 3.67 281.67 25.51 302.02 28.08"/>
  <polygon class="cls-1" points="233.35 55.51 226.94 63.5 234.28 71.59 225.82 64.67 218.15 71.48 224.57 63.49 217.22 55.4 225.68 62.31 233.35 55.51"/>
  <polygon class="cls-1" points="295.81 204.51 288.03 211.19 293.75 220.5 286.71 212.13 277.92 217.41 285.7 210.74 279.98 201.43 287.02 209.79 295.81 204.51"/>
  <polygon class="cls-1" points="259.65 274.7 250.26 278.82 253.02 289.39 248.73 279.34 238.77 281.83 248.17 277.71 245.41 267.14 249.7 277.19 259.65 274.7"/>
  <circle class="cls-1" cx="325.14" cy="23.79" r="3.02" transform="translate(-.66 35.45) rotate(-6.23)"/>
  <circle class="cls-1" cx="273.33" cy="186.2" r="3.02" transform="translate(-18.6 30.78) rotate(-6.23)"/>
  <circle class="cls-1" cx="238.77" cy="36.22" r="3.02" transform="translate(-2.52 26.14) rotate(-6.23)"/>
  <circle class="cls-1" cx="271.98" cy="74.67" r="3.02" transform="translate(-6.5 29.98) rotate(-6.23)"/>
  <polygon class="cls-1" points="43.42 108.49 23.61 113.83 25.91 135.56 20.43 114.41 0 116.35 19.81 111.01 17.51 89.28 22.99 110.44 43.42 108.49"/>
  <polygon class="cls-1" points="57.98 278.82 43.04 264.78 25.72 278.13 40.87 262.37 28.5 246.02 43.44 260.07 60.76 246.71 45.61 262.47 57.98 278.82"/>
  <polygon class="cls-1" points="69.78 31.26 49.31 29.9 44.43 51.2 46.11 29.42 26.16 24.64 46.63 26.01 51.51 4.71 49.83 26.49 69.78 31.26"/>
  <polygon class="cls-1" points="44.45 205.98 35.99 211.77 40.66 221.64 34.58 212.56 25.26 216.85 33.73 211.06 29.05 201.19 35.14 210.27 44.45 205.98"/>
  <circle class="cls-1" cx="93.24" cy="29.5" r="3.02"/>
  <circle class="cls-1" cx="24.09" cy="185.33" r="3.02"/>
  <circle class="cls-1" cx="6.02" cy="32.48" r="3.02"/>
  <circle class="cls-1" cx="21.08" cy="289.47" r="3.02"/>
  <circle class="cls-1" cx="34.86" cy="74.31" r="3.02"/>
  <polygon class="cls-1" points="118.1 107.89 116.74 128.36 138.04 133.24 116.25 131.56 111.48 151.52 112.84 131.05 91.54 126.17 113.33 127.85 118.1 107.89"/>
  <circle class="cls-1" cx="88.15" cy="84.15" r="3.01"/>
  <circle class="cls-1" cx="91.13" cy="171.37" r="3.01"/>
  <polygon class="cls-1" points="584.65 108 564.84 113.34 567.13 135.07 561.65 113.92 541.23 115.86 561.04 110.52 558.74 88.79 564.22 109.95 584.65 108"/>
  <polygon class="cls-1" points="471.15 32.81 456.2 18.76 438.89 32.11 454.04 16.35 441.67 0 456.61 14.05 473.92 .69 458.77 16.45 471.15 32.81"/>
  <polygon class="cls-1" points="559.16 190.75 540.49 199.27 546.33 220.32 537.45 200.36 517.62 205.63 536.28 197.11 530.44 176.05 539.33 196.02 559.16 190.75"/>
  <polygon class="cls-1" points="552.44 47.81 545.19 55.07 551.62 63.91 543.96 56.11 535.6 62.05 542.84 54.79 536.42 45.95 544.08 53.75 552.44 47.81"/>
  <polygon class="cls-1" points="492.52 102.17 484.05 107.96 488.73 117.84 482.64 108.76 473.33 113.05 481.79 107.26 477.12 97.38 483.2 106.46 492.52 102.17"/>
  <polygon class="cls-1" points="554.78 268.57 545 271.64 546.59 282.45 543.42 272 533.25 273.39 543.04 270.31 541.45 259.5 544.62 269.96 554.78 268.57"/>
  <circle class="cls-1" cx="530.89" cy="109.52" r="3.02"/>
  <circle class="cls-1" cx="559.92" cy="29.23" r="3.02"/>
  <circle class="cls-1" cx="538.39" cy="236.22" r="3.02"/>
</svg>